<mxfile host="app.diagrams.net" modified="2023-03-30T18:24:34.263Z" agent="Mozilla/5.0 (Windows NT 10.0; Win64; x64) AppleWebKit/537.36 (KHTML, like Gecko) Chrome/111.0.0.0 Safari/537.36" etag="sh-1bQnRMbwLcrQiXpW4" version="21.1.2" type="device">
  <diagram name="Page-1" id="e7e014a7-5840-1c2e-5031-d8a46d1fe8dd">
    <mxGraphModel dx="3135" dy="1191" grid="1" gridSize="10" guides="1" tooltips="1" connect="1" arrows="1" fold="1" page="1" pageScale="1" pageWidth="1169" pageHeight="826" background="none" math="0" shadow="0">
      <root>
        <mxCell id="0" />
        <mxCell id="1" parent="0" />
        <mxCell id="5" value="" style="ellipse;shape=startState;fillColor=#000000;strokeColor=#ff0000;" parent="1" vertex="1">
          <mxGeometry x="-415" y="150" width="30" height="30" as="geometry" />
        </mxCell>
        <mxCell id="6" value="" style="edgeStyle=elbowEdgeStyle;elbow=horizontal;verticalAlign=bottom;endArrow=open;endSize=8;strokeColor=#FF0000;endFill=1;rounded=0;entryX=0.5;entryY=0;entryDx=0;entryDy=0;exitX=0.5;exitY=1;exitDx=0;exitDy=0;" parent="1" source="5" target="1fz0zQ6AuOifUug1mTXv-41" edge="1">
          <mxGeometry x="-430.5" y="150" as="geometry">
            <mxPoint x="-415" y="220" as="targetPoint" />
          </mxGeometry>
        </mxCell>
        <mxCell id="1fz0zQ6AuOifUug1mTXv-41" value="Запустить приложение" style="rounded=1;whiteSpace=wrap;html=1;" parent="1" vertex="1">
          <mxGeometry x="-460" y="222" width="120" height="48" as="geometry" />
        </mxCell>
        <mxCell id="1fz0zQ6AuOifUug1mTXv-42" value="" style="endArrow=classic;html=1;rounded=0;exitX=0.5;exitY=1;exitDx=0;exitDy=0;" parent="1" source="1fz0zQ6AuOifUug1mTXv-41" edge="1">
          <mxGeometry width="50" height="50" relative="1" as="geometry">
            <mxPoint x="-245" y="440" as="sourcePoint" />
            <mxPoint x="-400" y="310" as="targetPoint" />
          </mxGeometry>
        </mxCell>
        <mxCell id="1fz0zQ6AuOifUug1mTXv-44" value="" style="endArrow=none;html=1;rounded=0;" parent="1" edge="1">
          <mxGeometry width="50" height="50" relative="1" as="geometry">
            <mxPoint x="-620" y="390" as="sourcePoint" />
            <mxPoint x="260" y="390" as="targetPoint" />
          </mxGeometry>
        </mxCell>
        <mxCell id="1fz0zQ6AuOifUug1mTXv-48" value="Просмотреть список клиник" style="rounded=1;whiteSpace=wrap;html=1;" parent="1" vertex="1">
          <mxGeometry x="-460" y="310" width="120" height="48" as="geometry" />
        </mxCell>
        <mxCell id="1fz0zQ6AuOifUug1mTXv-58" value="Войти в&lt;br&gt;профиль" style="rhombus;whiteSpace=wrap;html=1;" parent="1" vertex="1">
          <mxGeometry x="-10" y="530" width="120" height="60" as="geometry" />
        </mxCell>
        <mxCell id="1fz0zQ6AuOifUug1mTXv-59" value="" style="endArrow=classic;html=1;rounded=0;entryX=0.5;entryY=0;entryDx=0;entryDy=0;" parent="1" target="1fz0zQ6AuOifUug1mTXv-58" edge="1">
          <mxGeometry width="50" height="50" relative="1" as="geometry">
            <mxPoint x="50" y="390" as="sourcePoint" />
            <mxPoint x="130" y="530" as="targetPoint" />
          </mxGeometry>
        </mxCell>
        <mxCell id="1fz0zQ6AuOifUug1mTXv-62" value="" style="endArrow=classic;html=1;rounded=0;exitX=1;exitY=0.5;exitDx=0;exitDy=0;" parent="1" source="1fz0zQ6AuOifUug1mTXv-58" edge="1">
          <mxGeometry width="50" height="50" relative="1" as="geometry">
            <mxPoint x="114" y="560" as="sourcePoint" />
            <mxPoint x="100" y="1046" as="targetPoint" />
            <Array as="points">
              <mxPoint x="180" y="560" />
              <mxPoint x="180" y="920" />
              <mxPoint x="100" y="920" />
            </Array>
          </mxGeometry>
        </mxCell>
        <mxCell id="1fz0zQ6AuOifUug1mTXv-63" value="" style="endArrow=classic;html=1;rounded=0;exitX=0;exitY=0.5;exitDx=0;exitDy=0;entryX=0.5;entryY=0;entryDx=0;entryDy=0;" parent="1" source="1fz0zQ6AuOifUug1mTXv-58" target="1fz0zQ6AuOifUug1mTXv-214" edge="1">
          <mxGeometry width="50" height="50" relative="1" as="geometry">
            <mxPoint x="-60" y="561" as="sourcePoint" />
            <mxPoint x="-50" y="630" as="targetPoint" />
            <Array as="points">
              <mxPoint x="-45" y="560" />
            </Array>
          </mxGeometry>
        </mxCell>
        <mxCell id="1fz0zQ6AuOifUug1mTXv-65" value="" style="endArrow=none;html=1;rounded=0;" parent="1" edge="1">
          <mxGeometry width="50" height="50" relative="1" as="geometry">
            <mxPoint x="-190" y="1045" as="sourcePoint" />
            <mxPoint x="765" y="1045" as="targetPoint" />
          </mxGeometry>
        </mxCell>
        <mxCell id="1fz0zQ6AuOifUug1mTXv-70" value="" style="endArrow=classic;html=1;rounded=0;" parent="1" edge="1">
          <mxGeometry width="50" height="50" relative="1" as="geometry">
            <mxPoint x="-180" y="1045" as="sourcePoint" />
            <mxPoint x="-180" y="1095" as="targetPoint" />
          </mxGeometry>
        </mxCell>
        <mxCell id="1fz0zQ6AuOifUug1mTXv-71" value="Добавить питомца" style="rounded=1;whiteSpace=wrap;html=1;" parent="1" vertex="1">
          <mxGeometry x="-240" y="1095" width="120" height="48" as="geometry" />
        </mxCell>
        <mxCell id="1fz0zQ6AuOifUug1mTXv-72" value="" style="endArrow=classic;html=1;rounded=0;" parent="1" edge="1">
          <mxGeometry width="50" height="50" relative="1" as="geometry">
            <mxPoint x="-50" y="1045" as="sourcePoint" />
            <mxPoint x="-50" y="1095" as="targetPoint" />
          </mxGeometry>
        </mxCell>
        <mxCell id="1fz0zQ6AuOifUug1mTXv-73" value="Перейти к&amp;nbsp;списку событий" style="rounded=1;whiteSpace=wrap;html=1;" parent="1" vertex="1">
          <mxGeometry x="-110" y="1095" width="120" height="48" as="geometry" />
        </mxCell>
        <mxCell id="1fz0zQ6AuOifUug1mTXv-74" value="" style="endArrow=classic;html=1;rounded=0;" parent="1" edge="1">
          <mxGeometry width="50" height="50" relative="1" as="geometry">
            <mxPoint x="-60.370000000000005" y="1205" as="sourcePoint" />
            <mxPoint x="-60.370000000000005" y="1255" as="targetPoint" />
          </mxGeometry>
        </mxCell>
        <mxCell id="1fz0zQ6AuOifUug1mTXv-75" value="Добавить событие" style="rounded=1;whiteSpace=wrap;html=1;" parent="1" vertex="1">
          <mxGeometry x="-120" y="1255" width="120" height="48" as="geometry" />
        </mxCell>
        <mxCell id="1fz0zQ6AuOifUug1mTXv-76" value="" style="endArrow=none;html=1;rounded=0;" parent="1" edge="1">
          <mxGeometry width="50" height="50" relative="1" as="geometry">
            <mxPoint x="-100" y="1205" as="sourcePoint" />
            <mxPoint x="210" y="1205" as="targetPoint" />
          </mxGeometry>
        </mxCell>
        <mxCell id="1fz0zQ6AuOifUug1mTXv-77" value="" style="endArrow=classic;html=1;rounded=0;" parent="1" edge="1">
          <mxGeometry width="50" height="50" relative="1" as="geometry">
            <mxPoint x="59.63000000000011" y="1205" as="sourcePoint" />
            <mxPoint x="59.63000000000011" y="1255" as="targetPoint" />
          </mxGeometry>
        </mxCell>
        <mxCell id="1fz0zQ6AuOifUug1mTXv-81" value="" style="endArrow=classic;html=1;rounded=0;" parent="1" edge="1">
          <mxGeometry width="50" height="50" relative="1" as="geometry">
            <mxPoint x="-50" y="1143" as="sourcePoint" />
            <mxPoint x="-50" y="1205" as="targetPoint" />
          </mxGeometry>
        </mxCell>
        <mxCell id="1fz0zQ6AuOifUug1mTXv-95" value="" style="endArrow=classic;html=1;rounded=0;entryX=0.5;entryY=1;entryDx=0;entryDy=0;" parent="1" target="1fz0zQ6AuOifUug1mTXv-75" edge="1">
          <mxGeometry width="50" height="50" relative="1" as="geometry">
            <mxPoint x="-90" y="1303" as="sourcePoint" />
            <mxPoint x="-30" y="1325" as="targetPoint" />
            <Array as="points">
              <mxPoint x="-90" y="1325" />
              <mxPoint x="-60" y="1325" />
            </Array>
          </mxGeometry>
        </mxCell>
        <mxCell id="1fz0zQ6AuOifUug1mTXv-96" value="Ошибка добавления" style="edgeLabel;html=1;align=center;verticalAlign=middle;resizable=0;points=[];labelBackgroundColor=none;" parent="1fz0zQ6AuOifUug1mTXv-95" vertex="1" connectable="0">
          <mxGeometry x="0.1852" y="1" relative="1" as="geometry">
            <mxPoint x="-2" y="11" as="offset" />
          </mxGeometry>
        </mxCell>
        <mxCell id="1fz0zQ6AuOifUug1mTXv-100" value="" style="endArrow=classic;html=1;rounded=0;exitX=0.5;exitY=1;exitDx=0;exitDy=0;" parent="1" edge="1">
          <mxGeometry width="50" height="50" relative="1" as="geometry">
            <mxPoint x="-400" y="358" as="sourcePoint" />
            <mxPoint x="-400" y="390" as="targetPoint" />
          </mxGeometry>
        </mxCell>
        <mxCell id="1fz0zQ6AuOifUug1mTXv-103" value="" style="endArrow=classic;html=1;rounded=0;entryX=0.5;entryY=1;entryDx=0;entryDy=0;" parent="1" edge="1">
          <mxGeometry width="50" height="50" relative="1" as="geometry">
            <mxPoint x="-195" y="1143" as="sourcePoint" />
            <mxPoint x="-165" y="1143" as="targetPoint" />
            <Array as="points">
              <mxPoint x="-195" y="1165" />
              <mxPoint x="-165" y="1165" />
            </Array>
          </mxGeometry>
        </mxCell>
        <mxCell id="1fz0zQ6AuOifUug1mTXv-104" value="Ошибка добавления" style="edgeLabel;html=1;align=center;verticalAlign=middle;resizable=0;points=[];labelBackgroundColor=none;" parent="1fz0zQ6AuOifUug1mTXv-103" vertex="1" connectable="0">
          <mxGeometry x="0.1852" y="1" relative="1" as="geometry">
            <mxPoint x="-2" y="11" as="offset" />
          </mxGeometry>
        </mxCell>
        <mxCell id="1fz0zQ6AuOifUug1mTXv-126" value="" style="endArrow=classic;html=1;rounded=0;" parent="1" edge="1">
          <mxGeometry width="50" height="50" relative="1" as="geometry">
            <mxPoint x="280" y="1045" as="sourcePoint" />
            <mxPoint x="280" y="1095" as="targetPoint" />
          </mxGeometry>
        </mxCell>
        <mxCell id="1fz0zQ6AuOifUug1mTXv-127" value="Редактировать профиль" style="rounded=1;whiteSpace=wrap;html=1;" parent="1" vertex="1">
          <mxGeometry x="220" y="1095" width="120" height="48" as="geometry" />
        </mxCell>
        <mxCell id="1fz0zQ6AuOifUug1mTXv-128" value="" style="endArrow=classic;html=1;rounded=0;" parent="1" edge="1">
          <mxGeometry width="50" height="50" relative="1" as="geometry">
            <mxPoint x="320" y="1143" as="sourcePoint" />
            <mxPoint x="320" y="1193" as="targetPoint" />
          </mxGeometry>
        </mxCell>
        <mxCell id="1fz0zQ6AuOifUug1mTXv-129" value="Сменить пароль" style="rounded=1;whiteSpace=wrap;html=1;" parent="1" vertex="1">
          <mxGeometry x="250" y="1193" width="120" height="48" as="geometry" />
        </mxCell>
        <mxCell id="1fz0zQ6AuOifUug1mTXv-130" value="" style="endArrow=classic;html=1;rounded=0;entryX=0.5;entryY=1;entryDx=0;entryDy=0;" parent="1" edge="1">
          <mxGeometry width="50" height="50" relative="1" as="geometry">
            <mxPoint x="295" y="1241" as="sourcePoint" />
            <mxPoint x="325" y="1241" as="targetPoint" />
            <Array as="points">
              <mxPoint x="295" y="1263" />
              <mxPoint x="325" y="1263" />
            </Array>
          </mxGeometry>
        </mxCell>
        <mxCell id="1fz0zQ6AuOifUug1mTXv-131" value="Ошибка смены пароля" style="edgeLabel;html=1;align=center;verticalAlign=middle;resizable=0;points=[];labelBackgroundColor=none;" parent="1fz0zQ6AuOifUug1mTXv-130" vertex="1" connectable="0">
          <mxGeometry x="0.1852" y="1" relative="1" as="geometry">
            <mxPoint x="-2" y="11" as="offset" />
          </mxGeometry>
        </mxCell>
        <mxCell id="1fz0zQ6AuOifUug1mTXv-132" value="" style="endArrow=classic;html=1;rounded=0;entryX=0.5;entryY=1;entryDx=0;entryDy=0;" parent="1" edge="1">
          <mxGeometry width="50" height="50" relative="1" as="geometry">
            <mxPoint x="230" y="1143" as="sourcePoint" />
            <mxPoint x="260" y="1143" as="targetPoint" />
            <Array as="points">
              <mxPoint x="230" y="1165" />
              <mxPoint x="260" y="1165" />
            </Array>
          </mxGeometry>
        </mxCell>
        <mxCell id="1fz0zQ6AuOifUug1mTXv-133" value="Ошибка редактирования" style="edgeLabel;html=1;align=center;verticalAlign=middle;resizable=0;points=[];labelBackgroundColor=none;" parent="1fz0zQ6AuOifUug1mTXv-132" vertex="1" connectable="0">
          <mxGeometry x="0.1852" y="1" relative="1" as="geometry">
            <mxPoint x="-2" y="11" as="offset" />
          </mxGeometry>
        </mxCell>
        <mxCell id="1fz0zQ6AuOifUug1mTXv-134" value="[авторизация пройдена]" style="edgeLabel;html=1;align=center;verticalAlign=middle;resizable=0;points=[];labelBackgroundColor=none;" parent="1" vertex="1" connectable="0">
          <mxGeometry x="160.00225951719347" y="547.0044516016071" as="geometry" />
        </mxCell>
        <mxCell id="1fz0zQ6AuOifUug1mTXv-135" value="[авторизация не пройдена]" style="edgeLabel;html=1;align=center;verticalAlign=middle;resizable=0;points=[];labelBackgroundColor=none;" parent="1" vertex="1" connectable="0">
          <mxGeometry x="-73.99774048280653" y="547.0044516016071" as="geometry">
            <mxPoint x="2" y="2" as="offset" />
          </mxGeometry>
        </mxCell>
        <mxCell id="1fz0zQ6AuOifUug1mTXv-188" value="" style="endArrow=classic;html=1;rounded=0;" parent="1" edge="1">
          <mxGeometry width="50" height="50" relative="1" as="geometry">
            <mxPoint x="-570.3" y="389" as="sourcePoint" />
            <mxPoint x="-570" y="451" as="targetPoint" />
          </mxGeometry>
        </mxCell>
        <mxCell id="1fz0zQ6AuOifUug1mTXv-189" value="" style="endArrow=none;html=1;rounded=0;" parent="1" edge="1">
          <mxGeometry width="50" height="50" relative="1" as="geometry">
            <mxPoint x="-850" y="451" as="sourcePoint" />
            <mxPoint x="-530" y="452" as="targetPoint" />
          </mxGeometry>
        </mxCell>
        <mxCell id="1fz0zQ6AuOifUug1mTXv-190" value="" style="endArrow=classic;html=1;rounded=0;" parent="1" edge="1">
          <mxGeometry width="50" height="50" relative="1" as="geometry">
            <mxPoint x="-720" y="452" as="sourcePoint" />
            <mxPoint x="-720" y="502" as="targetPoint" />
          </mxGeometry>
        </mxCell>
        <mxCell id="1fz0zQ6AuOifUug1mTXv-191" value="Отфильтровать по городу/области" style="rounded=1;whiteSpace=wrap;html=1;" parent="1" vertex="1">
          <mxGeometry x="-780" y="502" width="120" height="48" as="geometry" />
        </mxCell>
        <mxCell id="1fz0zQ6AuOifUug1mTXv-192" value="" style="endArrow=classic;html=1;rounded=0;" parent="1" edge="1">
          <mxGeometry width="50" height="50" relative="1" as="geometry">
            <mxPoint x="-600" y="452" as="sourcePoint" />
            <mxPoint x="-600" y="502" as="targetPoint" />
          </mxGeometry>
        </mxCell>
        <mxCell id="1fz0zQ6AuOifUug1mTXv-193" value="Отсортировать по цене на услугу" style="rounded=1;whiteSpace=wrap;html=1;" parent="1" vertex="1">
          <mxGeometry x="-660" y="502" width="120" height="48" as="geometry" />
        </mxCell>
        <mxCell id="1fz0zQ6AuOifUug1mTXv-194" value="" style="endArrow=classic;html=1;rounded=0;" parent="1" edge="1">
          <mxGeometry width="50" height="50" relative="1" as="geometry">
            <mxPoint x="-840" y="452" as="sourcePoint" />
            <mxPoint x="-840" y="502" as="targetPoint" />
          </mxGeometry>
        </mxCell>
        <mxCell id="1fz0zQ6AuOifUug1mTXv-195" value="Открыть страницу клиники" style="rounded=1;whiteSpace=wrap;html=1;" parent="1" vertex="1">
          <mxGeometry x="-900" y="502" width="120" height="48" as="geometry" />
        </mxCell>
        <mxCell id="1fz0zQ6AuOifUug1mTXv-204" value="" style="endArrow=classic;html=1;rounded=0;" parent="1" edge="1">
          <mxGeometry width="50" height="50" relative="1" as="geometry">
            <mxPoint x="430" y="1045" as="sourcePoint" />
            <mxPoint x="430" y="1095" as="targetPoint" />
          </mxGeometry>
        </mxCell>
        <mxCell id="1fz0zQ6AuOifUug1mTXv-205" value="Выйти из профиля" style="rounded=1;whiteSpace=wrap;html=1;" parent="1" vertex="1">
          <mxGeometry x="370" y="1095" width="120" height="48" as="geometry" />
        </mxCell>
        <mxCell id="1fz0zQ6AuOifUug1mTXv-209" value="Выйти из приложения" style="rounded=1;whiteSpace=wrap;html=1;" parent="1" vertex="1">
          <mxGeometry x="170" y="440" width="120" height="48" as="geometry" />
        </mxCell>
        <mxCell id="1fz0zQ6AuOifUug1mTXv-210" value="" style="endArrow=classic;html=1;rounded=0;" parent="1" edge="1">
          <mxGeometry width="50" height="50" relative="1" as="geometry">
            <mxPoint x="229.40999999999997" y="390" as="sourcePoint" />
            <mxPoint x="229.40999999999997" y="440" as="targetPoint" />
          </mxGeometry>
        </mxCell>
        <mxCell id="1fz0zQ6AuOifUug1mTXv-212" value="" style="edgeStyle=elbowEdgeStyle;elbow=horizontal;verticalAlign=bottom;endArrow=open;endSize=8;strokeColor=#FF0000;endFill=1;rounded=0;exitX=0.5;exitY=1;exitDx=0;exitDy=0;entryX=0.5;entryY=0;entryDx=0;entryDy=0;" parent="1" target="1fz0zQ6AuOifUug1mTXv-213" edge="1">
          <mxGeometry x="234.32999999999993" y="458" as="geometry">
            <mxPoint x="265.16999999999996" y="514" as="targetPoint" />
            <mxPoint x="264.8299999999999" y="488" as="sourcePoint" />
          </mxGeometry>
        </mxCell>
        <mxCell id="1fz0zQ6AuOifUug1mTXv-213" value="" style="ellipse;html=1;shape=endState;fillColor=#000000;strokeColor=#ff0000;" parent="1" vertex="1">
          <mxGeometry x="250" y="520" width="30" height="30" as="geometry" />
        </mxCell>
        <mxCell id="1fz0zQ6AuOifUug1mTXv-214" value="Зайти в аккаунт" style="rhombus;whiteSpace=wrap;html=1;" parent="1" vertex="1">
          <mxGeometry x="-105" y="648" width="120" height="60" as="geometry" />
        </mxCell>
        <mxCell id="1fz0zQ6AuOifUug1mTXv-215" value="Зарегистрироваться" style="rounded=1;whiteSpace=wrap;html=1;" parent="1" vertex="1">
          <mxGeometry y="748" width="120" height="48" as="geometry" />
        </mxCell>
        <mxCell id="1fz0zQ6AuOifUug1mTXv-216" value="Авторизоваться" style="rounded=1;whiteSpace=wrap;html=1;" parent="1" vertex="1">
          <mxGeometry x="-335" y="730" width="120" height="48" as="geometry" />
        </mxCell>
        <mxCell id="1fz0zQ6AuOifUug1mTXv-218" value="" style="endArrow=classic;html=1;rounded=0;exitX=0;exitY=0.5;exitDx=0;exitDy=0;entryX=0.458;entryY=0;entryDx=0;entryDy=0;entryPerimeter=0;" parent="1" source="1fz0zQ6AuOifUug1mTXv-214" target="1fz0zQ6AuOifUug1mTXv-216" edge="1">
          <mxGeometry width="50" height="50" relative="1" as="geometry">
            <mxPoint x="-165" y="679" as="sourcePoint" />
            <mxPoint x="-155" y="748" as="targetPoint" />
            <Array as="points">
              <mxPoint x="-280" y="680" />
            </Array>
          </mxGeometry>
        </mxCell>
        <mxCell id="1fz0zQ6AuOifUug1mTXv-221" value="[зарегистрирован]" style="edgeLabel;html=1;align=center;verticalAlign=middle;resizable=0;points=[];labelBackgroundColor=none;" parent="1" vertex="1" connectable="0">
          <mxGeometry x="-159.99774048280642" y="668.0044516016071" as="geometry" />
        </mxCell>
        <mxCell id="1fz0zQ6AuOifUug1mTXv-222" value="[не зарегистрирован]" style="edgeLabel;html=1;align=center;verticalAlign=middle;resizable=0;points=[];labelBackgroundColor=none;" parent="1" vertex="1" connectable="0">
          <mxGeometry x="70.00225951719358" y="668.0044516016071" as="geometry" />
        </mxCell>
        <mxCell id="1fz0zQ6AuOifUug1mTXv-223" value="" style="endArrow=none;html=1;rounded=0;exitX=0.285;exitY=1.017;exitDx=0;exitDy=0;exitPerimeter=0;endFill=0;" parent="1" source="1fz0zQ6AuOifUug1mTXv-215" edge="1">
          <mxGeometry width="50" height="50" relative="1" as="geometry">
            <mxPoint x="34.5" y="830" as="sourcePoint" />
            <mxPoint x="100" y="1030" as="targetPoint" />
            <Array as="points">
              <mxPoint x="35" y="920" />
              <mxPoint x="100" y="920" />
            </Array>
          </mxGeometry>
        </mxCell>
        <mxCell id="1fz0zQ6AuOifUug1mTXv-224" value="" style="endArrow=classic;html=1;rounded=0;" parent="1" edge="1">
          <mxGeometry width="50" height="50" relative="1" as="geometry">
            <mxPoint x="645" y="1045" as="sourcePoint" />
            <mxPoint x="645" y="1095" as="targetPoint" />
          </mxGeometry>
        </mxCell>
        <mxCell id="1fz0zQ6AuOifUug1mTXv-227" value="" style="endArrow=classic;html=1;rounded=0;" parent="1" edge="1">
          <mxGeometry width="50" height="50" relative="1" as="geometry">
            <mxPoint x="644.5799999999999" y="1143" as="sourcePoint" />
            <mxPoint x="644.5799999999999" y="1193" as="targetPoint" />
          </mxGeometry>
        </mxCell>
        <mxCell id="1fz0zQ6AuOifUug1mTXv-228" value="" style="endArrow=none;html=1;rounded=0;" parent="1" edge="1">
          <mxGeometry width="50" height="50" relative="1" as="geometry">
            <mxPoint x="505" y="1193" as="sourcePoint" />
            <mxPoint x="815" y="1193" as="targetPoint" />
          </mxGeometry>
        </mxCell>
        <mxCell id="1fz0zQ6AuOifUug1mTXv-229" value="Редактировать питомца" style="rounded=1;whiteSpace=wrap;html=1;" parent="1" vertex="1">
          <mxGeometry x="535" y="1255" width="120" height="48" as="geometry" />
        </mxCell>
        <mxCell id="1fz0zQ6AuOifUug1mTXv-230" value="Удалить питомца" style="rounded=1;whiteSpace=wrap;html=1;" parent="1" vertex="1">
          <mxGeometry x="655" y="1255" width="120" height="48" as="geometry" />
        </mxCell>
        <mxCell id="1fz0zQ6AuOifUug1mTXv-231" value="" style="endArrow=classic;html=1;rounded=0;entryX=0.5;entryY=1;entryDx=0;entryDy=0;" parent="1" edge="1">
          <mxGeometry width="50" height="50" relative="1" as="geometry">
            <mxPoint x="580" y="1303" as="sourcePoint" />
            <mxPoint x="610" y="1303" as="targetPoint" />
            <Array as="points">
              <mxPoint x="580" y="1325" />
              <mxPoint x="610" y="1325" />
            </Array>
          </mxGeometry>
        </mxCell>
        <mxCell id="1fz0zQ6AuOifUug1mTXv-232" value="Ошибка редактирования" style="edgeLabel;html=1;align=center;verticalAlign=middle;resizable=0;points=[];labelBackgroundColor=none;" parent="1fz0zQ6AuOifUug1mTXv-231" vertex="1" connectable="0">
          <mxGeometry x="0.1852" y="1" relative="1" as="geometry">
            <mxPoint x="-2" y="11" as="offset" />
          </mxGeometry>
        </mxCell>
        <mxCell id="1fz0zQ6AuOifUug1mTXv-233" value="" style="endArrow=classic;html=1;rounded=0;entryX=0.5;entryY=0;entryDx=0;entryDy=0;" parent="1" target="1fz0zQ6AuOifUug1mTXv-229" edge="1">
          <mxGeometry width="50" height="50" relative="1" as="geometry">
            <mxPoint x="595" y="1193" as="sourcePoint" />
            <mxPoint x="595" y="1245" as="targetPoint" />
          </mxGeometry>
        </mxCell>
        <mxCell id="1fz0zQ6AuOifUug1mTXv-234" value="" style="endArrow=classic;html=1;rounded=0;entryX=0.5;entryY=0;entryDx=0;entryDy=0;" parent="1" target="1fz0zQ6AuOifUug1mTXv-230" edge="1">
          <mxGeometry width="50" height="50" relative="1" as="geometry">
            <mxPoint x="715" y="1193" as="sourcePoint" />
            <mxPoint x="715" y="1243" as="targetPoint" />
          </mxGeometry>
        </mxCell>
        <mxCell id="FVkWVT7gwpbMTEXKO0WV-17" value="Редактировать событие" style="rounded=1;whiteSpace=wrap;html=1;" parent="1" vertex="1">
          <mxGeometry x="85" y="1353" width="120" height="48" as="geometry" />
        </mxCell>
        <mxCell id="FVkWVT7gwpbMTEXKO0WV-18" value="" style="endArrow=classic;html=1;rounded=0;" parent="1" edge="1">
          <mxGeometry width="50" height="50" relative="1" as="geometry">
            <mxPoint x="55" y="1303" as="sourcePoint" />
            <mxPoint x="55" y="1353" as="targetPoint" />
          </mxGeometry>
        </mxCell>
        <mxCell id="FVkWVT7gwpbMTEXKO0WV-19" value="Удалить событие" style="rounded=1;whiteSpace=wrap;html=1;" parent="1" vertex="1">
          <mxGeometry x="-45" y="1353" width="120" height="48" as="geometry" />
        </mxCell>
        <mxCell id="FVkWVT7gwpbMTEXKO0WV-20" value="" style="endArrow=classic;html=1;rounded=0;entryX=0.5;entryY=1;entryDx=0;entryDy=0;" parent="1" edge="1">
          <mxGeometry width="50" height="50" relative="1" as="geometry">
            <mxPoint x="130" y="1401" as="sourcePoint" />
            <mxPoint x="160" y="1401" as="targetPoint" />
            <Array as="points">
              <mxPoint x="130" y="1423" />
              <mxPoint x="160" y="1423" />
            </Array>
          </mxGeometry>
        </mxCell>
        <mxCell id="FVkWVT7gwpbMTEXKO0WV-21" value="Ошибка редактирования" style="edgeLabel;html=1;align=center;verticalAlign=middle;resizable=0;points=[];labelBackgroundColor=none;" parent="FVkWVT7gwpbMTEXKO0WV-20" vertex="1" connectable="0">
          <mxGeometry x="0.1852" y="1" relative="1" as="geometry">
            <mxPoint x="-2" y="11" as="offset" />
          </mxGeometry>
        </mxCell>
        <mxCell id="FVkWVT7gwpbMTEXKO0WV-22" value="Просмотреть событие" style="rounded=1;whiteSpace=wrap;html=1;" parent="1" vertex="1">
          <mxGeometry x="15" y="1255" width="120" height="48" as="geometry" />
        </mxCell>
        <mxCell id="FVkWVT7gwpbMTEXKO0WV-23" value="" style="endArrow=classic;html=1;rounded=0;" parent="1" edge="1">
          <mxGeometry width="50" height="50" relative="1" as="geometry">
            <mxPoint x="115" y="1303" as="sourcePoint" />
            <mxPoint x="115" y="1353" as="targetPoint" />
          </mxGeometry>
        </mxCell>
        <mxCell id="FVkWVT7gwpbMTEXKO0WV-24" value="Просмотреть информацию о питомце" style="rounded=1;whiteSpace=wrap;html=1;" parent="1" vertex="1">
          <mxGeometry x="585" y="1095" width="120" height="48" as="geometry" />
        </mxCell>
        <mxCell id="CiW8cHof9bb6DV7aoVtx-6" value="" style="endArrow=classic;html=1;rounded=0;exitX=1;exitY=0.5;exitDx=0;exitDy=0;entryX=0.428;entryY=0.015;entryDx=0;entryDy=0;entryPerimeter=0;" parent="1" source="1fz0zQ6AuOifUug1mTXv-214" target="1fz0zQ6AuOifUug1mTXv-215" edge="1">
          <mxGeometry width="50" height="50" relative="1" as="geometry">
            <mxPoint x="-60" y="790" as="sourcePoint" />
            <mxPoint x="80" y="680" as="targetPoint" />
            <Array as="points">
              <mxPoint x="52" y="678" />
            </Array>
          </mxGeometry>
        </mxCell>
        <mxCell id="CiW8cHof9bb6DV7aoVtx-7" value="Пользователь" style="rhombus;whiteSpace=wrap;html=1;" parent="1" vertex="1">
          <mxGeometry x="-340" y="796" width="120" height="60" as="geometry" />
        </mxCell>
        <mxCell id="CiW8cHof9bb6DV7aoVtx-8" value="" style="endArrow=classic;html=1;rounded=0;exitX=0.458;exitY=1.002;exitDx=0;exitDy=0;exitPerimeter=0;entryX=0.5;entryY=0;entryDx=0;entryDy=0;" parent="1" source="1fz0zQ6AuOifUug1mTXv-216" target="CiW8cHof9bb6DV7aoVtx-7" edge="1">
          <mxGeometry width="50" height="50" relative="1" as="geometry">
            <mxPoint x="-270" y="870" as="sourcePoint" />
            <mxPoint x="-220" y="820" as="targetPoint" />
          </mxGeometry>
        </mxCell>
        <mxCell id="CiW8cHof9bb6DV7aoVtx-9" value="[администратор]" style="edgeLabel;html=1;align=center;verticalAlign=middle;resizable=0;points=[];labelBackgroundColor=none;" parent="1" vertex="1" connectable="0">
          <mxGeometry x="-369.9977404828064" y="810.0044516016071" as="geometry">
            <mxPoint y="-1" as="offset" />
          </mxGeometry>
        </mxCell>
        <mxCell id="CiW8cHof9bb6DV7aoVtx-10" value="[не администратор]" style="edgeLabel;html=1;align=center;verticalAlign=middle;resizable=0;points=[];labelBackgroundColor=none;" parent="1" vertex="1" connectable="0">
          <mxGeometry x="-184.99774048280642" y="810.0044516016071" as="geometry" />
        </mxCell>
        <mxCell id="CiW8cHof9bb6DV7aoVtx-11" value="" style="endArrow=classic;html=1;rounded=0;exitX=1;exitY=0.5;exitDx=0;exitDy=0;" parent="1" source="CiW8cHof9bb6DV7aoVtx-7" edge="1">
          <mxGeometry width="50" height="50" relative="1" as="geometry">
            <mxPoint x="-240" y="1020" as="sourcePoint" />
            <mxPoint x="30" y="826" as="targetPoint" />
          </mxGeometry>
        </mxCell>
        <mxCell id="CiW8cHof9bb6DV7aoVtx-12" value="" style="endArrow=none;html=1;rounded=0;" parent="1" edge="1">
          <mxGeometry width="50" height="50" relative="1" as="geometry">
            <mxPoint x="-757.5" y="887" as="sourcePoint" />
            <mxPoint x="-322.5" y="887" as="targetPoint" />
          </mxGeometry>
        </mxCell>
        <mxCell id="CiW8cHof9bb6DV7aoVtx-13" value="" style="endArrow=classic;html=1;rounded=0;exitX=0;exitY=0.5;exitDx=0;exitDy=0;" parent="1" source="CiW8cHof9bb6DV7aoVtx-7" edge="1">
          <mxGeometry width="50" height="50" relative="1" as="geometry">
            <mxPoint x="-560" y="1000" as="sourcePoint" />
            <mxPoint x="-410" y="886" as="targetPoint" />
            <Array as="points">
              <mxPoint x="-410" y="826" />
            </Array>
          </mxGeometry>
        </mxCell>
        <mxCell id="CiW8cHof9bb6DV7aoVtx-14" value="" style="endArrow=classic;html=1;rounded=0;" parent="1" edge="1">
          <mxGeometry width="50" height="50" relative="1" as="geometry">
            <mxPoint x="-727.5" y="886" as="sourcePoint" />
            <mxPoint x="-727.5" y="936" as="targetPoint" />
          </mxGeometry>
        </mxCell>
        <mxCell id="CiW8cHof9bb6DV7aoVtx-15" value="Выйти из профиля" style="rounded=1;whiteSpace=wrap;html=1;" parent="1" vertex="1">
          <mxGeometry x="-787.5" y="936" width="120" height="48" as="geometry" />
        </mxCell>
        <mxCell id="Y-RdDABnVUqH-Kb27lZq-6" value="" style="endArrow=classic;html=1;rounded=0;" parent="1" edge="1">
          <mxGeometry width="50" height="50" relative="1" as="geometry">
            <mxPoint x="-600" y="886" as="sourcePoint" />
            <mxPoint x="-600" y="936" as="targetPoint" />
          </mxGeometry>
        </mxCell>
        <mxCell id="Y-RdDABnVUqH-Kb27lZq-7" value="Добавить клинику" style="rounded=1;whiteSpace=wrap;html=1;" parent="1" vertex="1">
          <mxGeometry x="-660" y="936" width="120" height="48" as="geometry" />
        </mxCell>
        <mxCell id="Y-RdDABnVUqH-Kb27lZq-8" value="" style="endArrow=classic;html=1;rounded=0;" parent="1" edge="1">
          <mxGeometry width="50" height="50" relative="1" as="geometry">
            <mxPoint x="-455.3699999999999" y="890" as="sourcePoint" />
            <mxPoint x="-455.3699999999999" y="940" as="targetPoint" />
          </mxGeometry>
        </mxCell>
        <mxCell id="Y-RdDABnVUqH-Kb27lZq-9" value="Редактировать клинику" style="rounded=1;whiteSpace=wrap;html=1;" parent="1" vertex="1">
          <mxGeometry x="-440" y="1038" width="120" height="48" as="geometry" />
        </mxCell>
        <mxCell id="Y-RdDABnVUqH-Kb27lZq-10" value="" style="endArrow=classic;html=1;rounded=0;" parent="1" edge="1">
          <mxGeometry width="50" height="50" relative="1" as="geometry">
            <mxPoint x="-409.9999999999999" y="986" as="sourcePoint" />
            <mxPoint x="-410" y="1038" as="targetPoint" />
          </mxGeometry>
        </mxCell>
        <mxCell id="Y-RdDABnVUqH-Kb27lZq-11" value="Удалить клинику" style="rounded=1;whiteSpace=wrap;html=1;" parent="1" vertex="1">
          <mxGeometry x="-570" y="1038" width="120" height="48" as="geometry" />
        </mxCell>
        <mxCell id="Y-RdDABnVUqH-Kb27lZq-12" value="Просмотреть клинику" style="rounded=1;whiteSpace=wrap;html=1;" parent="1" vertex="1">
          <mxGeometry x="-505" y="940" width="120" height="48" as="geometry" />
        </mxCell>
        <mxCell id="Y-RdDABnVUqH-Kb27lZq-13" value="" style="endArrow=classic;html=1;rounded=0;" parent="1" edge="1">
          <mxGeometry width="50" height="50" relative="1" as="geometry">
            <mxPoint x="-469.9999999999999" y="988" as="sourcePoint" />
            <mxPoint x="-469.9999999999999" y="1038" as="targetPoint" />
          </mxGeometry>
        </mxCell>
        <mxCell id="Y-RdDABnVUqH-Kb27lZq-14" value="" style="endArrow=classic;html=1;rounded=0;" parent="1" edge="1">
          <mxGeometry width="50" height="50" relative="1" as="geometry">
            <mxPoint x="-456" y="886" as="sourcePoint" />
            <mxPoint x="-455.3699999999999" y="940" as="targetPoint" />
          </mxGeometry>
        </mxCell>
        <mxCell id="KXaJNhP8Dnmesp6ld6oo-6" value="Открыть калькулятор" style="rounded=1;whiteSpace=wrap;html=1;" vertex="1" parent="1">
          <mxGeometry x="-300" y="440" width="120" height="48" as="geometry" />
        </mxCell>
        <mxCell id="KXaJNhP8Dnmesp6ld6oo-7" value="" style="endArrow=classic;html=1;rounded=0;" edge="1" parent="1">
          <mxGeometry width="50" height="50" relative="1" as="geometry">
            <mxPoint x="-240.59000000000003" y="390" as="sourcePoint" />
            <mxPoint x="-240.59000000000003" y="440" as="targetPoint" />
          </mxGeometry>
        </mxCell>
        <mxCell id="KXaJNhP8Dnmesp6ld6oo-8" value="" style="endArrow=classic;html=1;rounded=0;entryX=0.5;entryY=1;entryDx=0;entryDy=0;" edge="1" parent="1">
          <mxGeometry width="50" height="50" relative="1" as="geometry">
            <mxPoint x="-400" y="1086" as="sourcePoint" />
            <mxPoint x="-370" y="1086" as="targetPoint" />
            <Array as="points">
              <mxPoint x="-400" y="1108" />
              <mxPoint x="-370" y="1108" />
            </Array>
          </mxGeometry>
        </mxCell>
        <mxCell id="KXaJNhP8Dnmesp6ld6oo-9" value="Ошибка добавления" style="edgeLabel;html=1;align=center;verticalAlign=middle;resizable=0;points=[];labelBackgroundColor=none;" vertex="1" connectable="0" parent="KXaJNhP8Dnmesp6ld6oo-8">
          <mxGeometry x="0.1852" y="1" relative="1" as="geometry">
            <mxPoint x="-2" y="11" as="offset" />
          </mxGeometry>
        </mxCell>
      </root>
    </mxGraphModel>
  </diagram>
</mxfile>
